<?xml version="1.0" encoding="UTF-8" standalone="no"?>
<!-- Created with Inkscape (http://www.inkscape.org/) -->

<svg
   width="59.10651mm"
   height="79.286079mm"
   viewBox="0 0 59.10651 79.286079"
   version="1.1"
   id="svg1"
   xml:space="preserve"
   sodipodi:docname="cadeado_logo.svg"
   inkscape:version="1.4.2 (f4327f4, 2025-05-13)"
   xmlns:inkscape="http://www.inkscape.org/namespaces/inkscape"
   xmlns:sodipodi="http://sodipodi.sourceforge.net/DTD/sodipodi-0.dtd"
   xmlns="http://www.w3.org/2000/svg"
   xmlns:svg="http://www.w3.org/2000/svg"><sodipodi:namedview
     id="namedview1"
     pagecolor="#ffffff"
     bordercolor="#000000"
     borderopacity="0.25"
     inkscape:showpageshadow="2"
     inkscape:pageopacity="0.0"
     inkscape:pagecheckerboard="0"
     inkscape:deskcolor="#d1d1d1"
     inkscape:document-units="mm"
     inkscape:zoom="0.71891835"
     inkscape:cx="91.804584"
     inkscape:cy="194.04151"
     inkscape:window-width="1536"
     inkscape:window-height="793"
     inkscape:window-x="-8"
     inkscape:window-y="1072"
     inkscape:window-maximized="1"
     inkscape:current-layer="layer1" /><defs
     id="defs1" /><g
     inkscape:label="Camada 1"
     inkscape:groupmode="layer"
     id="layer1"
     transform="translate(-81.14825,-97.076874)"><path
       style="fill:#ffffff"
       d="m 87.470563,176.07354 c -2.3783,-0.66004 -4.57183,-2.56634 -5.66059,-4.91939 -0.54569,-1.17937 -0.55866,-1.55607 -0.63248,-18.3687 -0.0829,-18.88868 -0.0999,-18.65541 1.53433,-21.12261 1.08063,-1.63146 3.30521,-3.09179 5.28214,-3.4675 l 1.54253,-0.29314 0.12325,-6.75731 c 0.13759,-7.54319 0.28106,-8.38888 2.04767,-12.06953 2.62032,-5.45931 7.82271,-9.793626 13.622527,-11.349461 5.17906,-1.389313 11.3719,-0.511993 16.1308,2.285201 2.72466,1.6015 6.32961,5.3463 7.72674,8.02649 2.19835,4.21723 2.7273,7.14414 2.73091,15.11143 l 0.002,4.79268 1.18899,0.16297 c 2.67004,0.36597 5.10943,2.2966 6.40395,5.06833 l 0.74143,1.5875 v 17.4625 17.4625 l -0.7006,1.49436 c -0.8922,1.90301 -2.51661,3.52742 -4.41962,4.41962 l -1.49436,0.70061 -22.48958,0.0519 c -17.301917,0.04 -22.764227,-0.0243 -23.680207,-0.27848 z m 46.329097,-5.00425 c 1.89325,-1.26477 1.8242,-0.5479 1.82465,-18.94255 4.2e-4,-16.47417 -5e-4,-16.50207 -0.57746,-17.52863 -0.36829,-0.65528 -0.97434,-1.22011 -1.67103,-1.55737 -1.06606,-0.51607 -1.62737,-0.52905 -22.63932,-0.52338 -20.674727,0.006 -21.591407,0.0264 -22.665157,0.51378 -0.64324,0.292 -1.34727,0.88012 -1.65587,1.38325 -0.5268,0.85889 -0.53558,1.19583 -0.46849,17.98979 l 0.0684,17.11451 0.79375,0.8385 c 0.43656,0.46118 1.03188,0.93765 1.32292,1.05882 0.29104,0.12118 10.48304,0.22787 22.648887,0.2371 l 22.11973,0.0168 z m -29.26347,-5.97298 c -1.25196,-0.76683 -9.600347,-9.64386 -9.793567,-10.41373 -0.33606,-1.33897 0.7535,-2.57001 2.28654,-2.58345 0.88869,-0.008 1.23993,0.27551 4.750857,3.83192 2.08517,2.11219 3.86889,3.80883 3.96382,3.77031 0.0949,-0.0385 3.96005,-4.17768 8.58917,-9.19815 4.62911,-5.02047 8.66434,-9.27273 8.96717,-9.44948 1.50178,-0.87651 3.32871,0.1508 3.32871,1.8718 0,1.14345 0.36625,0.70888 -10.66469,12.65421 -4.9197,5.32751 -9.20595,9.75638 -9.525,9.84194 -0.86866,0.23294 -1.03907,0.2038 -1.90301,-0.32537 z m -5.688547,-42.87564 c 0,-5.01057 0.0702,-6.02007 0.51968,-7.47448 1.013877,-3.28062 3.111687,-5.71761 6.267967,-7.28139 5.6994,-2.82376 13.03324,-0.24821 15.76989,5.53819 1.04451,2.20853 1.25496,3.81835 1.25496,9.5997 v 5.41094 h 2.24896 2.24896 v -5.9108 c 0,-4.9781 -0.0808,-6.22661 -0.51185,-7.91213 -2.71849,-10.62918 -14.41275,-15.63856 -24.0944,-10.32113 -2.42411,1.33139 -5.174767,4.19677 -6.414057,6.68156 -1.58689,3.18175 -1.76834,4.30478 -1.78843,11.06854 -0.01,3.2984 -0.0137,6.08638 -0.009,6.19552 0.005,0.10914 1.02114,0.19844 2.25807,0.19844 h 2.24895 z m 19.047417,0.0383 c -0.002,-5.47148 -0.033,-5.81979 -0.61994,-7.0776 -0.69159,-1.48199 -2.38602,-3.1478 -3.83847,-3.77364 -1.40423,-0.60507 -4.12928,-0.54711 -5.61682,0.11946 -1.54426,0.69199 -3.06337,2.2075 -3.77176,3.76282 -0.48914,1.07395 -0.56483,1.83376 -0.65499,6.57494 -0.0561,2.94837 -0.0339,5.53798 0.0493,5.75469 0.12875,0.33552 1.21297,0.39402 7.30325,0.39402 h 7.15205 z"
       id="path1" /></g></svg>
